<svg xmlns="http://www.w3.org/2000/svg" xmlns:xlink="http://www.w3.org/1999/xlink" width="60" zoomAndPan="magnify" viewBox="0 0 45 30.000001" height="40" preserveAspectRatio="xMidYMid meet" version="1.0"><defs><g/><clipPath id="7003c5fdbc"><path d="M 10.398438 5.441406 L 34.421875 5.441406 L 34.421875 18.121094 L 10.398438 18.121094 Z M 10.398438 5.441406 " clip-rule="nonzero"/></clipPath><clipPath id="66f4bef00e"><path d="M 15.5625 2.828125 L 17.675781 2.828125 L 17.675781 4.953125 L 15.5625 4.953125 Z M 15.5625 2.828125 " clip-rule="nonzero"/></clipPath><clipPath id="3960f03714"><path d="M 38 22 L 42.765625 22 L 42.765625 28.925781 L 38 28.925781 Z M 38 22 " clip-rule="nonzero"/></clipPath><clipPath id="8ffd22d1c2"><path d="M 1 0.25 L 2 0.25 L 2 2.574219 L 1 2.574219 Z M 1 0.25 " clip-rule="nonzero"/></clipPath><clipPath id="2f7f46e80b"><path d="M 1 1 L 2.714844 1 L 2.714844 2.574219 L 1 2.574219 Z M 1 1 " clip-rule="nonzero"/></clipPath><clipPath id="1ccb54c68c"><rect x="0" width="3" y="0" height="3"/></clipPath></defs><g clip-path="url(#7003c5fdbc)"><path fill="#203d4a" d="M 15.117188 8.640625 C 15.613281 8.640625 16.089844 8.71875 16.539062 8.863281 C 16.363281 9.445312 16.265625 10.066406 16.265625 10.710938 C 16.265625 12.1875 16.777344 13.542969 17.628906 14.617188 C 17.195312 13.765625 16.953125 12.800781 16.953125 11.78125 C 16.953125 8.3125 19.765625 5.503906 23.230469 5.503906 C 26.054688 5.503906 28.441406 7.367188 29.230469 9.929688 C 27.742188 10.453125 26.675781 11.875 26.675781 13.542969 C 26.675781 13.585938 26.675781 13.628906 26.679688 13.671875 C 26.949219 11.824219 28.542969 10.402344 30.464844 10.402344 C 32.578125 10.402344 34.292969 12.117188 34.292969 14.230469 C 34.292969 16.34375 32.578125 18.058594 30.464844 18.058594 C 25.457031 18.058594 20.097656 18.058594 15.117188 18.058594 C 12.515625 18.058594 10.40625 15.949219 10.40625 13.351562 C 10.40625 10.75 12.515625 8.640625 15.117188 8.640625 " fill-opacity="1" fill-rule="evenodd"/></g><path fill="#2bbced" d="M 15.898438 13.84375 C 15.589844 12.695312 15.957031 11.417969 16.894531 10.210938 C 17.003906 9.796875 17.15625 9.398438 17.34375 9.023438 C 15.011719 10.683594 13.75 12.683594 14.21875 14.433594 C 15.820312 20.414062 31.800781 14.640625 36.347656 8.910156 C 33.964844 11.699219 17.367188 19.039062 15.898438 13.84375 " fill-opacity="1" fill-rule="evenodd"/><path fill="#2bbced" d="M 13.640625 5.9375 C 13.996094 5.9375 14.285156 6.226562 14.285156 6.582031 C 14.285156 6.226562 14.574219 5.9375 14.929688 5.9375 C 14.574219 5.9375 14.285156 5.648438 14.285156 5.296875 C 14.285156 5.648438 13.996094 5.9375 13.640625 5.9375 " fill-opacity="1" fill-rule="evenodd"/><path fill="#2bbced" d="M 16.90625 6.394531 C 17.460938 6.394531 17.910156 6.84375 17.910156 7.398438 C 17.910156 6.84375 18.359375 6.394531 18.914062 6.394531 C 18.359375 6.394531 17.910156 5.945312 17.910156 5.390625 C 17.910156 5.945312 17.460938 6.394531 16.90625 6.394531 " fill-opacity="1" fill-rule="evenodd"/><g clip-path="url(#66f4bef00e)"><path fill="#2bbced" d="M 15.636719 3.832031 C 16.191406 3.832031 16.640625 4.28125 16.640625 4.835938 C 16.640625 4.28125 17.089844 3.832031 17.644531 3.832031 C 17.089844 3.832031 16.640625 3.382812 16.640625 2.828125 C 16.640625 3.382812 16.191406 3.832031 15.636719 3.832031 " fill-opacity="1" fill-rule="evenodd"/></g><path fill="#2bbced" d="M 39.28125 6.148438 C 39.164062 6.113281 39.019531 6.179688 38.90625 6.175781 C 38.554688 6.164062 38.253906 6.222656 37.949219 6.433594 C 36.894531 7.179688 33.996094 9.492188 33.996094 9.492188 L 32.511719 9 L 32.289062 9.261719 L 33.730469 10.195312 C 34.222656 10.511719 34.660156 10.046875 35.148438 9.683594 L 36.25 8.863281 L 36.640625 8.152344 L 36.085938 10.019531 L 36.648438 9.574219 L 37.515625 7.917969 L 38.914062 6.878906 C 39.355469 6.550781 39.527344 6.226562 39.28125 6.148438 " fill-opacity="1" fill-rule="evenodd"/><path fill="#203d4a" d="M 8.660156 26.613281 L 8.660156 20.96875 L 7.457031 20.96875 L 7.457031 24.625 L 4.84375 20.96875 L 3.605469 20.96875 L 3.605469 26.613281 L 4.808594 26.613281 L 4.808594 22.824219 L 7.5 26.613281 Z M 8.660156 26.613281 " fill-opacity="1" fill-rule="nonzero"/><path fill="#203d4a" d="M 9.488281 24.566406 C 9.488281 25.878906 10.425781 26.71875 11.671875 26.71875 C 12.304688 26.71875 12.941406 26.53125 13.355469 26.148438 L 12.878906 25.457031 C 12.617188 25.710938 12.171875 25.863281 11.789062 25.863281 C 11.09375 25.863281 10.679688 25.429688 10.613281 24.914062 L 13.652344 24.914062 L 13.652344 24.675781 C 13.652344 23.339844 12.820312 22.425781 11.601562 22.425781 C 10.359375 22.425781 9.488281 23.382812 9.488281 24.566406 Z M 11.601562 23.28125 C 12.3125 23.28125 12.585938 23.796875 12.609375 24.1875 L 10.59375 24.1875 C 10.644531 23.78125 10.933594 23.28125 11.601562 23.28125 Z M 11.601562 23.28125 " fill-opacity="1" fill-rule="nonzero"/><path fill="#203d4a" d="M 18.261719 26.613281 L 18.261719 22.527344 L 17.1875 22.527344 L 17.1875 25.292969 C 17 25.53125 16.671875 25.761719 16.257812 25.761719 C 15.800781 25.761719 15.503906 25.574219 15.503906 25.007812 L 15.503906 22.527344 L 14.429688 22.527344 L 14.429688 25.429688 C 14.429688 26.226562 14.851562 26.71875 15.75 26.71875 C 16.417969 26.71875 16.90625 26.410156 17.1875 26.097656 L 17.1875 26.613281 Z M 18.261719 26.613281 " fill-opacity="1" fill-rule="nonzero"/><path fill="#203d4a" d="M 20.402344 26.613281 L 20.402344 23.914062 C 20.578125 23.652344 21.054688 23.457031 21.410156 23.457031 C 21.527344 23.457031 21.628906 23.46875 21.707031 23.484375 L 21.707031 22.433594 C 21.199219 22.433594 20.691406 22.722656 20.402344 23.085938 L 20.402344 22.527344 L 19.328125 22.527344 L 19.328125 26.613281 Z M 20.402344 26.613281 " fill-opacity="1" fill-rule="nonzero"/><path fill="#203d4a" d="M 25.902344 26.613281 L 25.902344 23.976562 C 25.902344 22.796875 25.046875 22.425781 24.117188 22.425781 C 23.472656 22.425781 22.832031 22.628906 22.332031 23.070312 L 22.738281 23.789062 C 23.085938 23.46875 23.488281 23.304688 23.929688 23.304688 C 24.472656 23.304688 24.828125 23.578125 24.828125 23.992188 L 24.828125 24.558594 C 24.554688 24.230469 24.074219 24.058594 23.53125 24.058594 C 22.882812 24.058594 22.109375 24.40625 22.109375 25.363281 C 22.109375 26.277344 22.882812 26.71875 23.53125 26.71875 C 24.066406 26.71875 24.546875 26.523438 24.828125 26.191406 L 24.828125 26.613281 Z M 24.828125 25.632812 C 24.648438 25.871094 24.3125 25.988281 23.964844 25.988281 C 23.539062 25.988281 23.195312 25.769531 23.195312 25.386719 C 23.195312 25 23.539062 24.769531 23.964844 24.769531 C 24.3125 24.769531 24.648438 24.890625 24.828125 25.125 Z M 24.828125 25.632812 " fill-opacity="1" fill-rule="nonzero"/><path fill="#203d4a" d="M 28.769531 25.820312 C 29.304688 26.351562 30.082031 26.71875 31.164062 26.71875 C 32.6875 26.71875 33.425781 25.9375 33.425781 24.90625 C 33.425781 23.652344 32.238281 23.375 31.308594 23.164062 C 30.65625 23.011719 30.183594 22.890625 30.183594 22.511719 C 30.183594 22.171875 30.472656 21.933594 31.011719 21.933594 C 31.5625 21.933594 32.171875 22.128906 32.628906 22.554688 L 33.296875 21.671875 C 32.738281 21.15625 31.992188 20.886719 31.097656 20.886719 C 29.769531 20.886719 28.957031 21.648438 28.957031 22.585938 C 28.957031 23.847656 30.140625 24.101562 31.0625 24.3125 C 31.714844 24.464844 32.207031 24.609375 32.207031 25.03125 C 32.207031 25.355469 31.882812 25.667969 31.222656 25.667969 C 30.445312 25.667969 29.828125 25.320312 29.429688 24.90625 Z M 28.769531 25.820312 " fill-opacity="1" fill-rule="nonzero"/><path fill="#203d4a" d="M 38.203125 26.613281 L 36.539062 24.382812 L 38.152344 22.527344 L 36.832031 22.527344 L 35.285156 24.347656 L 35.285156 20.96875 L 34.210938 20.96875 L 34.210938 26.613281 L 35.285156 26.613281 L 35.285156 25.566406 L 35.777344 25.042969 L 36.859375 26.613281 Z M 38.203125 26.613281 " fill-opacity="1" fill-rule="nonzero"/><g clip-path="url(#3960f03714)"><path fill="#203d4a" d="M 38.59375 28.214844 C 38.726562 28.25 39 28.273438 39.125 28.273438 C 39.828125 28.257812 40.371094 28.054688 40.675781 27.285156 L 42.597656 22.527344 L 41.4375 22.527344 L 40.371094 25.371094 L 39.304688 22.527344 L 38.152344 22.527344 L 39.8125 26.675781 L 39.660156 27.023438 C 39.558594 27.242188 39.371094 27.316406 39.09375 27.316406 C 38.992188 27.316406 38.847656 27.292969 38.753906 27.25 Z M 38.59375 28.214844 " fill-opacity="1" fill-rule="nonzero"/></g><g transform="matrix(1, 0, 0, 1, 8, 3)"><g clip-path="url(#1ccb54c68c)"><g clip-path="url(#8ffd22d1c2)"><g fill="#ffffff" fill-opacity="1"><g transform="translate(1.081134, 2.03859)"><g><path d="M 0.21875 -1.046875 C 0.1875 -1.046875 0.160156 -1.050781 0.140625 -1.0625 C 0.128906 -1.082031 0.125 -1.109375 0.125 -1.140625 C 0.125 -1.160156 0.128906 -1.179688 0.140625 -1.203125 C 0.160156 -1.222656 0.1875 -1.234375 0.21875 -1.234375 C 0.25 -1.234375 0.269531 -1.222656 0.28125 -1.203125 C 0.300781 -1.179688 0.3125 -1.160156 0.3125 -1.140625 C 0.3125 -1.109375 0.300781 -1.082031 0.28125 -1.0625 C 0.269531 -1.050781 0.25 -1.046875 0.21875 -1.046875 Z M 0.15625 0 L 0.15625 -0.875 L 0.28125 -0.875 L 0.28125 0 Z M 0.15625 0 "/></g></g></g></g><g clip-path="url(#2f7f46e80b)"><g fill="#ffffff" fill-opacity="1"><g transform="translate(1.514726, 2.03859)"><g><path d="M 0.5 0.015625 C 0.414062 0.015625 0.34375 0 0.28125 -0.03125 C 0.21875 -0.0703125 0.171875 -0.125 0.140625 -0.1875 C 0.109375 -0.257812 0.09375 -0.34375 0.09375 -0.4375 C 0.09375 -0.53125 0.109375 -0.609375 0.140625 -0.671875 C 0.171875 -0.742188 0.21875 -0.796875 0.28125 -0.828125 C 0.34375 -0.867188 0.414062 -0.890625 0.5 -0.890625 C 0.582031 -0.890625 0.65625 -0.867188 0.71875 -0.828125 C 0.78125 -0.796875 0.828125 -0.742188 0.859375 -0.671875 C 0.890625 -0.609375 0.90625 -0.53125 0.90625 -0.4375 C 0.90625 -0.34375 0.890625 -0.257812 0.859375 -0.1875 C 0.828125 -0.125 0.78125 -0.0703125 0.71875 -0.03125 C 0.65625 0 0.582031 0.015625 0.5 0.015625 Z M 0.5 -0.09375 C 0.59375 -0.09375 0.660156 -0.117188 0.703125 -0.171875 C 0.742188 -0.234375 0.765625 -0.320312 0.765625 -0.4375 C 0.765625 -0.550781 0.742188 -0.632812 0.703125 -0.6875 C 0.660156 -0.75 0.59375 -0.78125 0.5 -0.78125 C 0.414062 -0.78125 0.347656 -0.75 0.296875 -0.6875 C 0.253906 -0.632812 0.234375 -0.550781 0.234375 -0.4375 C 0.234375 -0.320312 0.253906 -0.234375 0.296875 -0.171875 C 0.347656 -0.117188 0.414062 -0.09375 0.5 -0.09375 Z M 0.5 -0.09375 "/></g></g></g></g></g></g></svg>